<svg id="roleResearch" xmlns="http://www.w3.org/2000/svg" viewBox="0 0 200 200" style="enable-background:new 0 0 200 200" xml:space="preserve"><path style="fill-rule:evenodd;clip-rule:evenodd;fill:#ddd5ff" d="M0 0h200v200H0z"/><path d="M148.2 44.7c-.7-.3-1.4-.7-2-1.1-1.8-1.3-3.7-1.3-5.5-.1-.1.1-.4-.1-.8-.3-.5-2.5-.1-5.2-1.2-7.7-1.7-.5-3.3-.2-4.7.4-1.5.6-2.4 1.7-2.2 3.4 0 .2.3.3.6.5.4-.2.9-.4 1.4-.6.5-.2.9-.3 1.4-.5 1.1 2.5 1.2 3.2.6 6.3-2.9.7-5.7 1.7-9 1.5-.1-1.3-.1-2.4-.3-3.6-.3-1.5-.7-3.1-1.3-4.5-.3-.6-1.1-1.4-1.7-1.4-2.4-.3-4.8-.1-6.5 1.9-.6.7-1.1 1.4-1.7 2.2-.1.2-.1.5-.2.9.6.5 1.3 1 1.9 1.5 1.9-1 2.8-2.7 4.6-3.4 1.3 2.1 1.4 3.6 1 7.3-2.3 1.1-4.9.6-7.3 1.2-.8.2-1.8 0-2.9 0-.3-3.1-.6-6.1-.8-8.8-1.9-2-3.7-2.7-6.2-1.8-1.6 1.7-3.2 3.5-4.2 5.8 1.2 1 2.3 1.2 3.3.1.8-.9 1.4-1.9 2.1-2.8.4-.6.9-1 1.7-.4 0 1.2.1 2.5.2 3.8 0 1.4.9 2.8.4 4.2-2.9 1.1-10.3 1.8-13.9 1.4 0-1.4-.1-2.8-.1-4.2 0-1.8-.5-3.4-1.2-5-.7-1.5-1.9-2.1-3.5-2-3.1.3-5.6 1.5-7 4.7.8.7 1.7 1.3 2.5 2 1.4-1.2 2.6-2.4 4.1-3.7 1.4 3.2.3 6.1.5 9.2-3.8.3-7.2 1.4-10.7.8-1.5-3.2-.8-7.1-3.7-9.8-1.6.3-3.1.5-4.6.9-.5.2-1 .9-1.3 1.4-.9 1.5-1.5 3.1-1.4 4.9 0 .2.3.3.7.6 1.6-1.1 1.9-3.7 4.4-4.2 1 2.2 1.7 4.4 1.6 6.9-6.5 1.1-12.8 2.2-19.1 3.2 1.3 3.1 2.1 3.8 4.8 3.5 3.7-.4 7.4-1 11-1.5.9-.1 1.7 0 2.9 0-1.3 2.9-1.3 5.3 1 7.4.4-.3.9-.5 1-.8.9-2.3 1.7-4.7 2.6-7.1 1.4-.7 3.1-.5 4.6-.6 1.6-.1 3.1-.2 4.5-.3 1.1 2.8 1.1 5.9 4.2 7.4 1.9-2.6.5-5.8 2-8.5 4.4-.4 8.8-1.3 13.3-.8 1.1 2.1-.4 4.9 2.3 6.7.4-2.5.7-4.8 1.1-7.3 2.8-.3 5.4-.7 8-1 .7-.1 1.5 0 2.4 0 .5 1.3.8 2.4 1.4 3.4.4.9 1.1 1.7 2.5 1.7.4-2 .8-4 1.3-6 1.4-.3 2.8-.7 4.3-.8 1.4 0 2.6-1.5 4.2-.5 0 .5.1 1 0 1.5-.3 2 .6 3.6 1.4 5.2.1.3.7.5 1 .5.3 0 .7-.3.9-.6.2-.5.3-1 .3-1.5.1-1.6.3-3.2.4-4.7.1-1.7 1-2.7 2.6-3.1.7-.2 1.5-.2 2.5-.3 0 1.1.2 2 .1 2.9-.4 5.3-.9 10.5-1.3 15.8-.4 5-.9 10-1.3 15-.4 5.3-1 10.5-1.2 15.8-.3 7-.4 14-.7 21-.1 2.9-.4 5.8-.8 8.7-.8 6.4-1 12.9-.8 19.4 0 2.1.2 4.2-.5 6.4-6 .7-11.8 1.4-17.8 1.6-8.2.2-16.4.3-24.6.8-9.9.6-19.8.7-29.8 1-1.2 0-2.3-.1-3.7-.1 0-1.1-.1-2 0-2.9 0-3.3.1-6.6 0-9.9-.1-3.4-.4-6.8-.6-10.2-.2-3.3-.3-6.6-.6-9.9-.3-4-.8-7.9-1.1-11.8-1-12.9-1.1-25.9-.1-38.9.1-2 .2-4 .2-6 0-1.4-.3-2.6-1.8-3.3-.3.4-.8.8-.9 1.2-1 2.7-2.2 5.4-2.9 8.2-1.6 6.2-2 12.5-2.2 18.9-.3 8.5-.1 16.9-.1 25.4 0 4.1.1 8.2 0 12.3-.1 6.8-.3 13.5-.6 20.2-.1 3 .5 5.5 3.2 7.1-.7 1.1-2.5.3-2.7 2.2 3 .5 6 1.3 9 1.3 11.8.2 23.6.3 35.3.2 10.1-.1 20.1-.4 30.1-.7 3.3-.1 6.6-.4 9.9-.6h2.7c1.5 2.4 1.7 5.7 5.3 5.9.8-.7 2.1-1.1 2.3-2.5.4-2.6.9-5.2 1.2-7.8.1-.8-.5-1.7-.5-2.6-.1-5.4-.7-10.8-.2-16.2.7-7.5.5-15.1-.2-22.6-.3-3.7-.3-7.4-.1-11.1.3-7.8 1-15.6 1.4-23.4.4-8.8.8-17.7 1.1-26.6-.3-2.5-.2-4.9-1.2-7.2z" style="fill-rule:evenodd;clip-rule:evenodd;fill:#0e4f5c"/><path d="M73.6 96.5c.7 2.4.9 2.6 3.3 2.5 1.7 0 3.4-.1 5.1-.3 6.6-.8 13.1-1.6 19.6-2.4 7.6-1 15.3-.8 22.9-.7 2.1 0 4.2-.2 6.3-.4.3 0 .9-.7 1-1 .1-.4-.2-1.2-.5-1.3-1.6-.8-3.3-1.6-5.2-1.4-2 .3-4 .2-5.9.3-11.9.4-23.7 1.3-35.5 3-3.6.5-7.2 1.5-11 .5-.1.5-.2.9-.1 1.2zm13.5-12c6.1-.6 12.1-1 18.2-1.5 3.3-.3 6.6-.7 9.8-1 2.4-.2 4.7-.4 7.1-.6.8 0 1.6 0 2.4-.2 1.1-.2 1.6-1.7.8-2.5-.5-.6-1.2-1.2-1.9-1.4-1.5-.3-3.1-.6-4.7-.4-6.3.7-12.6 1.5-18.9 2.3-6.5.8-13.1 1.7-19.6 2.5-1.4.2-2.8.3-4.7.6.8.7 1.2 1.3 1.7 1.4 3.2 1.1 6.5 1.1 9.8.8zm-12.7 29.8c2 .2 3.9.5 5.9 0 3.2-.7 6.5-1.1 9.7-1.7 6.5-1.1 13.1-2 19.7-1.2 1.4.2 2.9 0 4.4 0l15.4-.3c1.1 0 1.9-.4 1.8-1 0-.7-.5-1.2-1.2-1.4-1.3-.3-2.5-.8-3.8-1-1.8-.2-3.7-.3-5.5-.3-6.9.2-13.7.6-20.6.8-5.8.2-11.5 1-17.3 2-3.4.6-6.8 1-10.5 1.5 0 1.5.4 2.4 2 2.6zm7.2 29.1c2 .9 4 1.5 6.1 1.4 4.2-.3 8.4-.7 12.6-1 4.5-.3 9-.7 13.5-.9 4.6-.2 9.2-.3 13.9-.4.7 0 1.4 0 2-.2.5-.2 1.1-.7 1.3-1.2.3-.7-.4-1.2-1-1.4-.6-.2-1.3-.3-2-.3h-3.2c-7.4.2-14.8.3-22.2.7-7.2.4-14.5 1.2-22.3 1.9.6.7.8 1.2 1.3 1.4zm41.9-15.1c1.4.2 2.9.3 4.3.2.4 0 1-.6 1.1-1 .1-.4-.2-1.1-.5-1.4-1.6-1-3.4-1.4-5.2-1.5-5.3-.4-10.6 0-15.9.2-8.5.4-16.9.8-25.4 1.2-1.6.1-3.1.1-4.6.8.2.3.3.7.5.7 2.2.9 4.4 1.6 6.9 1.6 5.3 0 10.5-.7 15.8-1.2 7.8-.5 15.4-.8 23 .4z" style="fill-rule:evenodd;clip-rule:evenodd;fill:#919191"/></svg>