<svg xmlns="http://www.w3.org/2000/svg" viewBox="0 0 200 200" xml:space="preserve"><path fill-rule="evenodd" clip-rule="evenodd" fill="#fbfcfd" d="M0 0h200v200H0z"/><path d="M99.6 54.4c1.9-.2-.8 1 .4 1.1 7 0 11.3-4.8 10.4-12.2-.6-4.8-4-6.3-8.3-8.3h-4.6c-11.4 1.3-9.6 20.9 2.1 19.4zm-.3-15.1c1.3-.3 1.2.6.4.7 4 1.5 5.4 6.4 2.2 9.7-7.4 2-8.9-9-2.6-10.4z" fill-rule="evenodd" clip-rule="evenodd" fill="#fb5a47"/><path d="M135.6 73.5c6.2-11.5-9.9-22.1-17.6-13-4.6 5.4-2.5 14.1 5.4 16.6 1.2.4 3.7-1.2 2.9.4 0 .4-.5.6 0 .7 4-.5 8-2.3 9.3-4.7zm-7.5-1.1c-7.3 1.6-9-9.4-2.2-10.8 1.5-.1 0 .6 0 1.1 4.4 1.3 5 6.2 2.2 9.7z" fill-rule="evenodd" clip-rule="evenodd" fill="#efbfb8"/><path d="M107.2 98.3c8.2-8.2-.2-21.8-11.5-18-4.2 1.4-6.5 6-6.1 11.9.9 2.6 3.8 5.1 4.7 6.5-2.2.2-5.1 0-7.2 1.1-5.6 2.8-5 9.2-5 17.6 0 13.9-2.2 25.1 7.6 27.7.6 7.7 0 14.7.7 21.9 9.8.7 12 .1 18.3-.4.2-.6-.4-2.1.4-2.2.3.8.2 2 1.1 2.2-.2-7.4.6-13.8.4-21.2 7.7-1.8 7.2-7.9 7.2-16.6-.2-15.5 3.5-29.9-10.6-30.5zm-7.9-14c1.3-.3 1.2.6.4.7 4 1.5 5.4 6.4 2.2 9.7-7.4 1.9-8.9-9-2.6-10.4zm9.7 64.4c-.8-.4-.1-2.3-.4-3.2.6-.4.6 2.3.4 3.2zm.7-9.4c-1.5.8-4 .5-5 1.8 0 5.3.5 13.7.4 21.9-5.2.1-6.2.6-10.4 0 .7-3.7.4-11.7.7-17.3.1-1.4.7-2.8.4-4-.9-3.4-4.3-2.1-6.8-4-1.1-2.4-1-5.6-.7-8.6.6-7.3-1.7-19.4.7-23 3-4.5 16.4-1.3 21.2-1.1 2.7 3.1 1.5 9 1.4 14.8-.2 7.5 2.2 16.3-1.9 19.5z" fill-rule="evenodd" clip-rule="evenodd" fill="#97d4ea"/><path d="M163.3 107.6c-1.6-5-4.5-8.7-10.4-9.4-.6-.9 1.1-1.9 1.8-4 .6-1.8.9-4.3.7-6.1-1.4-11.9-23.6-10.8-20.9 3.6.6 3 3.5 5 4.7 6.8-5.2 0-10.1 1.7-11.9 6.1-1 2.6-.4 7.7-.4 12.2 0 12.6-2.5 25.4 7.6 28.1.6 7.7 0 14.7.7 21.9 9.6.7 12.1.1 18-.4.8 0 .2-1.5.4-2.2.8.3.6 1.6 1.1 2.2.6-6.5.7-13.4.7-20.5 2-2.1 4.2-2.1 5.8-4.3 4.6-6.7-.2-21.4 2.2-31.7-.1-.6-.1-1.4-.1-2.3zm-19-23.3c1.3-.3 1.2.6.4.7 4 1.5 5.4 6.4 2.2 9.7-7.5 1.9-9-9-2.6-10.4zm9.7 64.4c-.8-.4-.1-2.3-.4-3.2.6-.4.6 2.3.4 3.2zm2.8-12.3c-1.1 3.6-4.7 3-7.2 4.7 0 5.3.5 13.7.4 21.9-5.2.4-5.6 0-10.1.4.2-7.4.3-14.8.7-21.9-.9-2.5-4.8-2.2-6.8-3.6-1.1-2.5-1-5.5-.7-8.6.6-7.3-1.7-19.4.7-23 3-4.5 16.4-1.3 21.2-1.1 2.7 3.2 1.5 9 1.4 14.8 0 5.8 1.7 12.4.4 16.4z" fill-rule="evenodd" clip-rule="evenodd" fill="#fdc907"/><path d="M62.9 98.3c-.6-.9 1.1-1.9 1.8-4 .6-1.8.9-4.3.7-6.1-1.4-11.9-23.5-10.7-20.8 3.6.6 3 3.5 5 4.7 6.8-7.5-.1-11.4 3.3-12.6 9.4v22.3c.3 7.8 1.5 12.8 7.9 14.8.6 7.7 0 14.7.7 21.9 9.6.7 12.1.1 18-.4.8 0 .2-1.5.4-2.2.8.3.6 1.6 1.1 2.2.6-6.5.7-13.4.7-20.5 6.7-2.7 7.2-7.3 7.2-16.9 0-7 1.2-15.5.7-20.9-.6-6.3-5.9-9.4-10.5-10zm-8.6-14c1.4-1.1.5.9.4.7 1 1.5 4.1 2.2 4.3 4.7.2 1.9-1.1 2.6-2.2 5-7.3 1.9-8.8-9-2.5-10.4zm9.7 64c-.6-.3-.6-3 0-3.2-.2 1.6.5 2.1 0 3.2zm2.9-11.9c-1.1 3.6-4.7 3-7.2 4.7 0 5.3.5 13.7.4 21.9-5.2.4-5.6 0-10.1.4.2-7.4.3-14.8.7-21.9-.9-2.5-4.8-2.2-6.8-3.6-1.1-2.5-1-5.5-.7-8.6.6-7.3-1.7-19.4.7-23 3-4.5 16.4-1.3 21.2-1.1 2.7 3.2 1.5 9 1.4 14.8s1.7 12.4.4 16.4z" fill-rule="evenodd" clip-rule="evenodd" fill="#0e4f5c"/><path d="M88.1 65.9c-.6-5.1-5.2-7.8-9-8.3-14.3-2-16.9 20.5-1.1 19.1.1.5-1.5 1.1-.4 1.4 6.9-.4 11.4-5.1 10.5-12.2zm-9 6.5c-7.5 1-8.6-9.4-1.8-10.8.2 2 3.4 3.1 4.3 5.4-.4 2.1-1.5 3.7-2.5 5.4z" fill-rule="evenodd" clip-rule="evenodd" fill="#ddd5ff"/></svg>