<svg id="roleEducator" xmlns="http://www.w3.org/2000/svg" viewBox="0 0 200 200" style="enable-background:new 0 0 200 200" xml:space="preserve"><path style="fill-rule:evenodd;clip-rule:evenodd;fill:#f5f0e6" d="M0 0h200v200H0z"/><path d="M158.8 78.7c4.3-2.3 12.3-.8 12.7-7-13.2-5.7-27.4-10.3-42.2-14.3-.9-.2-.4-1.8-1.6-1.6-3.8.9-7.1-2.4-9.8-3.3-2.3-.7-5 .3-6.2-.8-.3-1.1 1.9.3 1.6-.8-3.9 1.2-6.2-3.9-9.8-2.9.1.2-3.4.7-4.9 0 1.1.1 2.1.1 1.2-.8h-1.2c-2 2.4-6.9 2.1-9 4.5-.8-.2.7-1.2-1.2-.8-1.7 0-4.9 2-6.2 2.5-.5.2-1.4-.6-2-.4-.8.2-1.1 1.3-2 1.6-1.6.5-3.6 0-5.3.8-2.1 1-4.6 2-7.4 2.9-2.9.9-5 2.3-5.3 1.2-3.7 1.8-7.9 3.3-11.5 5.3 0-1.1 1.6-.6 1.6-1.6-7 3-16.8 2.7-21.7 8.6v2.5c6.3 5.4 18.3 7.1 26.2 9.4-1.8 6.3 0 14 0 21.7 0 9.7-1.6 19.8.8 26.6 28 6 62.4 5.9 90.5 0 2-17.2-.5-32 0-48.3 2.2-1.2 4.9-2 7.4-2.9v25.4c0 8.4 1.5 18.3 0 25.8-1.5 7.3-12.9 16.7-6.2 20.9h6.2c3.6-1.3 10.5.7 13.5-1.2.9-7.3-6.8-12.5-8.2-20.1-1.4-7.9 0-17.5 0-26.2V78.7zm-18.5 48.7c-15.4 1.7-36.5 3.6-53.3 1.6.2-2.9-2 1.6-3.3-1.2-.5.7-1.3 1.1-2.5 1.2 1.1-1.7-2.2-2.4-4.1-.8 2-1.4-2.1-1.4-2.5 0-3.7-2.8-7.9-1.5-12.7-2 .6-1.8 0-2.4 0-4.5 12.1.3 20.5 2.6 32.4 1.2 14.7 2.1 30.7-1 45.9-3.3 0 1.7 1 5.6.1 7.8zm.5-11c-7 1.3-12.4-.1-18.4 1.6-1.4-.1 0-1.1-.8-1.2-.4 1.1-6.3.9-7.4 1.2 1.6-1-1.2-.6-2.9-1.2-.5.4.1 1-1.2 1.2-1.6.1-.2-.3-.4-1.2-1.6 1.2-3 .2-4.5 1.6 0-.6.1-1.2-.4-1.2-5.8.8-10.7-.9-16.4 1.2.2-.3.4-.7.4-1.2-8.7 0-19.5-1.2-27.4-2 1-9.1 0-19.2.4-29.1 6.3.9 11.3 4 18.8 5.7 4.7 1.1 7.9 1 12.3 2.5 3.1 1 5.5 2.9 7.8 2.9 3.7 0 7.1-2.7 10.6-3.7 9.3-2.7 20.1-5.3 29.1-9 .9 9.8.1 21.4.4 31.9zm19.2 29.9c-1.4 1.6-5.5.5-8.2.8.6-2.8 3.2-4 4.5-4.9 1.3 1.3 2.5 2.7 3.7 4.1zm-45.9-59c-4.2 1.3-9.9 4.1-13.1 4.1-5.9 0-11-5.6-18-5.7 0-.8-1.1-.5-.8-1.6-2.5 1.4-4.9-2.1-7.4-.8-.5-3.4-3.6-2.4-5.7-2.5.1-.5.8-.3.8-.8-1.5.6-2.5-1.3-4.9 0 0-1.1.7-.8 0-1.6-5.5-.8-11.5-4.5-18.4-4.1.8-.5 1.9-1 0-1.2 17.9-6.4 35.6-11.5 53.7-17.6 19.5 5.9 39.7 11.1 59 17.2-12.3 4.5-30.1 9.8-45.2 14.6z" style="fill-rule:evenodd;clip-rule:evenodd;fill:#0e4f5c"/></svg>