<svg id="roleJournalist" xmlns="http://www.w3.org/2000/svg" viewBox="0 0 200 200" style="enable-background:new 0 0 200 200" xml:space="preserve"><path style="fill-rule:evenodd;clip-rule:evenodd;fill:#fbfcfd" d="M0 0h200v200H0z"/><path d="M80.3 82.2c-1.3-6.6-7.8-4.6-14.5-5.5-.4-.1-.2-.4 0-.7-3.2.9-4 1.1-5.2-.7-1.3 1.8-2.3-.6-3.8 1.4-1.3-2.5-5.5.2-7.2.7-.5 1-.6 2.3-.7 2.8-.5 0-.3-.6-.7-.7-1.2 1.9-.8 3.8-.7 5.9.4 8.8-2.4 21.7 5.2 24.5 7.7-.1 11.6.3 18.3-1 3 1.2 8.3-.1 9.3-3.8.3-.9-.1-3.2 0-5.2.1-5.1.7-14 0-17.7zm-3.1 22c-.9.1-1.3.5-1.4 1.4-.7-.9-4.4.7-4.5-1-.6 1.5-2.3-.3-2.8 1-.3-1.2-.3-.6-1.7-1.4-.3.3-.5.6-.7 1 .1-1.7-.7 0-1.7 0-.2 0-1.3-1.3-2.8-1-1.7.3-3.8-.2-4.8 1.4-.5-.2.1-.4 0-1-1 .5-1.8-.2-3.4 0-1.4-9.1-1.6-15.2-.4-23.5 7.3.1 16.4-2.5 23.8.3.7 5.9.3 15.4.4 22.8z" style="fill-rule:evenodd;clip-rule:evenodd;fill:#97d4ea"/><path d="M152.1 81.1c-2.4-5.1-8.9-4-14.5-4.5-.4-.1-.2-.4 0-.7-2.7.9-4.1.8-5.2-.7-1.2 1.9-2.3-.7-3.4 1.4-1.7-2.4-9.1-.1-7.9 3.4-.7-.2-.7-1-1.4-.3-.7 1.9-.1 3.6 0 5.5.2 3.7-.5 10.3-.3 12.4.1 1.7 0 3.9 0 4.1 0 3.3 1.8 5.5 3.1 6.9 7 2 14.1.9 20.4 0 13.9 3.3 8.3-15.7 9.2-27.5zm-4.2 24.5c-3.1 0-5.4-1.3-7.6 0-.5-1.2 0-.5-1-1.4-.9-.2-.7.7-1 1 0-1.1-1.2-1-2.1 0-.2-1.4-5.8-1.5-7.2.3-.6-.3-.1-.6 0-1-1.4.4-1.9-.1-3.8 0-1.3-8.9-1.1-15.4-.3-23.5 7.5-.3 14.6-1.7 23.5-.3 1 6.6 2.2 19.1-.5 24.9z" style="fill-rule:evenodd;clip-rule:evenodd;fill:#ddd5ff"/><path d="M112.4 77.3c-4.5-1.5-5.9.4-10.7-.7-.4-.1-.2-.4 0-.7-1.2.6-4.2 1.2-4.5-.3-1.7.6-2.8-.5-4.1 1-1.6-2.5-5.6.2-7.6.7-.5 1-.6 2.3-.7 2.8-.5 0-.3-.6-.7-.7-1.1 2-.8 3.7-.7 5.5.3 5.1-.4 12.8 0 17.6.3 4.5 2.7 5.6 5.2 7.2 7.8-.1 11.7.3 18.3-1 4.6 1.6 9.7-.9 9.7-6.5-.2-6.9 1.6-23-4.2-24.9zm-5.2 27.3c-.6 1.5-2.3-.3-2.8 1-.4-1.2-.1-.8-1.7-1.4-.8.2.4.5-.3 1-2.4-.4-5.9-2.2-9.3.3-.6-1.5-1.6-.8-3.8-1C88 95.2 88 89.4 89 81c8.6-.3 16.2-2 23.8 0 1 7.9.4 14.9.7 22.4-1 2.4-4.7 2.8-6.3 1.2z" style="fill-rule:evenodd;clip-rule:evenodd;fill:#0e4f5c"/><path d="M60.6 59.7c1.2.9 2.6 1.6 4.5 1.7 3.2-3.4-4.8-8.7-4.5-1.7zm-10 1.8c1.4-1.1.6-3.9-.3-4.8-5.6-1.9-4.6 5.6.3 4.8zm6.9-4.9c-2.6-1.1-4.3.5-4.1 3.1 1.2.9 2.7 1.5 4.5 1.7 1.2-1.2.4-3.6-.4-4.8zm38.3 64.6c4.1.1 10.8-.5 15.9-.7.4-1.1.6-3.5 0-4.5-6 .2-13.5 1-22.1.7v3.1c3.9-.2 4 1 6.9.7 0 .4-.6.3-.7.7zm29.7-4.5v3.1c2.8.4 5.3.1 6.9 1-.3-.2-.7.3-.7.3 4.3.9 11.2-1 15.9-.7.9-1.9.8-3.1-.3-4.8-6.2 1.2-13.4 1.1-21.8 1.1zm-35.9 7.2v2.7c3.3.2 5.9 1 6.9 1.7 4.1-.2 10.8-.1 15.2-1 .5-.8.5-3.3 0-4.1-6.1 0-12.9 1-22.1.7zm-35.9 7.3v2.8c2 .5 5.7.4 4.8 1.7 3.1-.2 13.6.5 9.7-5.5-5.1.6-7.5.8-14.5 1zm35.9 0v2.8c5.5 1.3 9.5 3.1 15.5-.3-.3-.8.2-2.3-1-3.4-6.3.7-7.8.7-14.5.9zm35.9 0v2.8c2.4 0 5.1 1 4.8 1.7 3.7.1 14.4-.2 9.7-5.5-5.8 1-7.2.7-14.5 1zm38 5.8c-1.7-28.2.6-60.2-1.4-88-17.7-1.8-36.1-1-51.8-1.4.8.1 1.4-.2 1.7-.7-1.7.2-3.6 1.5-4.5-.3h-4.1c.1.3.3.4.7.3-1 .6-2.5.7-4.1.7-1.1-.4.9-.4 1.4-.3 0-.5-.6-.3-.7-.7h-1c-1.7 1.5-5.2-.4-6.9 1.4-.6-1-2-1-3.1-1.4h-.3c-.8.3-3.7 1.5-4.1 0h-6.9c-6.9 1.2-15.2-.1-21.1 1.4.1-.5.8-.3 1.4-.3-5.6-.3-19.6-3.2-22.1 3.4v28.3c.5 20.4.6 44.6.7 64.9 0 3.3-.6 6.7 1 7.9 4.2 3.1 17-1.4 20.4 1h.7c35.2-1.8 67.3-.2 102.8-1.7 2-3.3.2-9.4 1.4-14.1l-.1-.4zm-3.5 12.1c-38.6-.5-77.9.3-119.4 0 0-8.2.4-16.3.7-23.5.1-3.5-.7-7.3-.3-10.3.1-.6 1-1.5 1-2.1.1-5.8-2.3-12.5.7-16.9-.8-.3-.1-4-1.4-5.5v-.7c.8-.7.8.1.3.7 1.8.3-1.1-3.4.7-4.5-.1-1.3-.8-1.9-1-3.1.2-1 1.1-1.2 1-2.4-.4-9.6.2-18.9-.7-28 24.3.1 55.2-1 77.3-.7 7.5.1 17.6.8 25.9-.3 2.9.7 9.1.3 13.8.3 1.4 14.3-.4 29.4 1.4 46.2-.6 15.6 0 32.1 0 50.8zM46.5 66.3v3.1c7 .2 14.8.3 19.7 1 2.1-.6 4.1.1 6.2-.3.2.7.5.5 2.1 1 1.5.2 1.1-1.4 2.8-1 0 .5-.6.3-.7.7 1.4.2 3.1 0 4.5-1 0 .5-.1 1.2.7 1 4.5-.1 10.7.5 16.2-1 0 .5-.9.3-.7 1 21-.8 41.5.1 57.6-1 .6-1 .5-3.6-.3-4.1-31.3.5-69.4.7-108.1.6zm7.2 50.4v3.1c3.4.4 4.3-.2 5.5 1.4-.5-1.1.7-.4 1-.3.4.2.3-.1 2.1 0s2.5.5 4.5.3c6.2-.5 10.1 1 9.3-4.8-5.4-.9-12.9.9-22.4.3zm0 7.2v2.7c3.5.4 5.8.9 6.5 1.7 2.1-.1 11.2-.4 15.2-.7 1-.7 1-4.1 0-4.8-6.3 1-13.2 1.2-21.7 1.1zm71.8 0v2.7c2.5.4 4.6.3 5.5 1.4.1-.3 1.5-.9 1.4-.3 0 .5-.6.3-.7.7 4.6 0 10.2-.5 15.9-.7.8-1.7.8-3.5-.3-4.8-6.7.9-12.1 1-21.8 1z" style="fill-rule:evenodd;clip-rule:evenodd;fill:#fdc907"/></svg>